# xmcd
#
# Track frame offsets:
#	150
#	9226
#	17536
#	28207
#	39683
#	55876
#	67785
#	76982
#	94753
#	105494
#	117421
#	125686
#	135962
#	148535
#	160763
#	178725
#	186350
#	198000
#
# Disc length: 2760 seconds
#
# Revision: 1
# Processed by: cddbd v1.4PL0 Copyright (c) Steve Scherf et al.
# Submitted via: audiograbber 1.81.03
#
DISCID=e60ac612
DTITLE=Big`Miller]p[Tommy`Banks Big Band - Big`Miller - 1976-78
DYEAR=1997
DGENRE=Big Band
TTITLE0=Thinking of You
TTITLE1=Stormy Monday
TTITLE2=Honey Hush
TTITLE3=Trouble in Mind
TTITLE4=I Got it Bad and That Ain't Good
TTITLE5=On a Cool Saturday Night
TTITLE6=Hit That Jive Jack
TTITLE7=Without a Song
TTITLE8=Sneak On Your Heel High Putters
TTITLE9=lament
TTITLE10=I Got Rhythm
TTITLE11=You're The Best Thing That Ever Happened To Me
TTITLE12=big's Blues
TTITLE13=My Ship
TTITLE14=Over the Rainbow
TTITLE15=Loose Walk
TTITLE16=Mr Blues Child
TTITLE17=Near You
EXTD=
EXTT0=
EXTT1=
EXTT2=
EXTT3=
EXTT4=
EXTT5=
EXTT6=
EXTT7=
EXTT8=
EXTT9=
EXTT10=
EXTT11=
EXTT12=
EXTT13=
EXTT14=
EXTT15=
EXTT16=
EXTT17=
PLAYORDER=
